<svg width="37" height="37" viewBox="0 0 37 37" fill="none" xmlns="http://www.w3.org/2000/svg">
<path d="M34.1804 18.5001C35.8753 17.3498 36.2628 15.41 35.8456 13.8525C35.4281 12.2947 34.123 10.8086 32.0797 10.6599C32.9723 8.81619 32.3382 6.94299 31.1979 5.80258C30.0577 4.6626 28.1834 4.02809 26.3403 4.92068C26.1916 2.87785 24.7055 1.57251 23.1478 1.15506C21.5904 0.73718 19.6505 1.12515 18.5 2.81974C17.3495 1.12515 15.4096 0.736326 13.8522 1.15506C12.2945 1.57251 10.8084 2.87785 10.6597 4.92068C8.8155 4.02766 6.94206 4.66217 5.80205 5.80258C4.66183 6.94257 4.02752 8.81662 4.92013 10.6603C2.87748 10.809 1.57189 12.2951 1.15443 13.8525C0.737187 15.41 1.12452 17.3498 2.81958 18.5001C1.12474 19.6503 0.737187 21.5901 1.15443 23.1476C1.57189 24.7054 2.87705 26.1915 4.92034 26.3402C4.02774 28.1839 4.66183 30.0571 5.80205 31.1975C6.94227 32.3375 8.817 32.972 10.6597 32.0794C10.8084 34.1223 12.2945 35.4276 13.8522 35.8451C15.4105 36.2634 17.3497 35.8754 18.5 34.1804C19.373 35.4665 20.7005 35.9997 21.9709 35.9997C22.3744 35.9997 22.7722 35.9459 23.1478 35.8451C24.7055 35.4276 26.1916 34.1223 26.3403 32.0794C28.1841 32.9716 30.0575 32.3371 31.1979 31.1975C32.3382 30.0576 32.9725 28.1835 32.0799 26.3398C34.1225 26.1911 35.4281 24.705 35.8456 23.1476C36.2628 21.5901 35.8755 19.6503 34.1804 18.5001ZM35.0002 14.079C35.3698 15.458 34.9451 17.2108 33.1835 18.0625H23.5641C23.5119 17.4538 23.3504 16.8773 23.1021 16.3483L31.435 11.5377C33.3868 11.3998 34.6308 12.6999 35.0002 14.079ZM18.5 22.7113C16.1779 22.7113 14.2889 20.8223 14.2889 18.5001C14.2889 16.1778 16.1779 14.2888 18.5 14.2888C20.8221 14.2888 22.7111 16.1778 22.7111 18.5001C22.7111 20.8223 20.8221 22.7113 18.5 22.7113ZM30.579 6.42128C31.5886 7.43068 32.0974 9.16095 30.9977 10.7796L22.6653 15.5899C22.3232 15.1018 21.8983 14.6769 21.4103 14.3348L26.2209 6.00276C27.8395 4.90399 29.5698 5.41186 30.579 6.42128ZM22.9214 2.00022C24.3005 2.36982 25.6062 3.61406 25.4627 5.56547L20.6519 13.898C20.1228 13.6496 19.5463 13.4881 18.9375 13.4359V3.81688C19.789 2.05561 21.5421 1.6302 22.9214 2.00022ZM14.0786 2.00022C15.4575 1.63105 17.2108 2.05526 18.0625 3.81691V13.4359C17.4537 13.4881 16.8772 13.6496 16.3481 13.898L11.5373 5.56547C11.3938 3.61406 12.6995 2.36982 14.0786 2.00022ZM6.42077 6.42128C7.42999 5.41186 9.16083 4.90359 10.7791 6.00271L15.5897 14.3348C15.1017 14.6769 14.6768 15.1018 14.3347 15.5899L6.0029 10.7794C4.90272 9.1614 5.41122 7.43081 6.42077 6.42128ZM1.99982 14.079C2.36943 12.6999 3.61343 11.3999 5.5652 11.5373L13.8979 16.3483C13.6496 16.8773 13.4881 17.4538 13.4359 18.0625H3.81655C2.05502 17.2108 1.63022 15.458 1.99982 14.079ZM1.99982 22.9211C1.63022 21.5421 2.05486 19.7893 3.81655 18.9376H13.4359C13.4881 19.5463 13.6496 20.1228 13.8979 20.6518L5.56488 25.4624C3.6177 25.601 2.36943 24.3002 1.99982 22.9211ZM6.42098 30.5788C5.41138 29.5694 4.90264 27.8392 6.00229 26.2205L14.3347 21.4102C14.6768 21.8983 15.1017 22.3233 15.5897 22.6653L10.7791 30.9975C9.16137 32.0969 7.43061 31.5887 6.42098 30.5788ZM14.0786 34.9999C12.6995 34.6303 11.3938 33.3861 11.5373 31.4347L16.3481 23.1021C16.8772 23.3505 17.4537 23.512 18.0625 23.5642V33.1832C17.2108 34.9445 15.4585 35.3699 14.0786 34.9999ZM22.9214 34.9999C21.5427 35.3699 19.7895 34.9449 18.9375 33.1832V23.5642C19.5463 23.512 20.1228 23.3505 20.6519 23.1021L25.4627 31.4347C25.6062 33.3861 24.3005 34.6303 22.9214 34.9999ZM30.5792 30.5788C29.5702 31.5878 27.8394 32.0965 26.2209 30.9974L21.4103 22.6653C21.8983 22.3233 22.3232 21.8983 22.6653 21.4102L30.9971 26.2207C32.0973 27.8387 31.5888 29.5693 30.5792 30.5788ZM35.0002 22.9211C34.6308 24.3006 33.3894 25.6039 31.4351 25.463L23.1021 20.6518C23.3504 20.1228 23.5119 19.5463 23.5641 18.9376H33.1835C34.945 19.7893 35.3698 21.5421 35.0002 22.9211Z" fill="#C8523C" stroke="#C8523C" stroke-width="0.7"/>
</svg>
