<svg width="61" height="78" viewBox="0 0 61 78" fill="none" xmlns="http://www.w3.org/2000/svg">
<path d="M59.4621 15.9407C59.8457 15.4631 60.0358 14.8575 59.9944 14.2451C59.953 13.6327 59.6831 13.0586 59.2387 12.6376C58.599 12.0181 57.7676 11.6377 56.8828 11.5595C57.6356 11.0023 58.1959 10.2223 58.4851 9.32874C58.7145 8.6545 58.7032 7.92105 58.4534 7.25421C58.2035 6.58738 57.7305 6.02874 57.1157 5.67414C56.7767 5.49227 56.4045 5.38175 56.0216 5.34933C55.6388 5.3169 55.2534 5.36325 54.8889 5.48555C54.6786 5.55867 54.4762 5.65295 54.2848 5.76695C54.3344 5.60162 54.3805 5.43546 54.4194 5.26801C54.6487 4.45208 54.6016 3.58265 54.2854 2.7966C53.6141 1.33106 51.7374 1.18457 50.376 1.61635C49.3898 1.9344 48.5466 2.59161 47.9945 3.47252C47.9673 3.00242 47.8125 2.54878 47.5469 2.16088C47.3421 1.88181 47.0821 1.64828 46.7833 1.47491C46.4845 1.30154 46.1533 1.19208 45.8105 1.15338C45.4518 1.1446 45.0958 1.21833 44.7698 1.36893C44.4438 1.51954 44.1563 1.74303 43.9293 2.02235C43.2675 2.70526 42.8019 3.55555 42.5821 4.48298C42.3622 5.4104 42.3962 6.38037 42.6805 7.28993C42.3208 7.04335 41.9126 6.87734 41.4836 6.80315C41.1565 6.72818 40.816 6.73654 40.4929 6.82748C40.1699 6.91841 39.8746 7.08903 39.6338 7.32384C39.4023 7.6262 39.2629 7.98958 39.2327 8.36994C39.2024 8.7503 39.2826 9.13132 39.4634 9.46681C40.1442 10.6528 41.1414 11.6239 42.3423 12.2702C43.5422 12.9158 44.5652 13.8489 45.3205 14.987C41.4537 17.0536 37.8958 19.6573 34.7516 22.7214C31.441 25.9291 28.6103 29.6023 26.348 33.6263C26.0989 34.0711 25.8582 34.5201 25.6259 34.9735C25.7078 33.7762 25.5977 32.5734 25.2999 31.4112C25.0841 30.57 24.8004 29.7433 24.531 28.9181C24.2597 28.0873 23.9763 27.2602 23.6692 26.442C23.6497 26.39 23.6293 26.3384 23.6096 26.2864C25.1304 25.4179 26.8434 24.6516 27.8979 23.1914C29.1194 21.4998 29.1759 19.2319 29.071 17.2297C28.952 15.8862 28.9136 14.5367 28.9561 13.1885C28.9704 12.9767 28.7369 12.902 28.5783 12.9706C26.9417 13.7239 25.585 14.9797 24.7034 16.5573C23.7171 18.3456 23.1577 20.3398 23.0694 22.3826C23.0166 23.2117 23.0071 24.0429 23.041 24.873C22.0438 22.3788 20.5907 20.0944 18.7569 18.138C17.716 17.062 16.5072 16.1642 15.1782 15.48C17.4358 14.9503 19.6517 14.2544 21.8078 13.3979C22.6928 13.1155 23.4547 12.5367 23.9666 11.7579C24.1668 11.3392 24.2346 10.8687 24.1607 10.41C24.0868 9.95133 23.8748 9.52642 23.5533 9.19256C23.2024 8.85793 22.7797 8.60877 22.3179 8.46427C21.8561 8.31976 21.3674 8.28379 20.8895 8.3591C21.148 8.01913 21.3317 7.6279 21.4286 7.21127C21.5256 6.79463 21.5334 6.36207 21.4517 5.94215C21.2649 5.42553 20.9303 4.97595 20.49 4.6499C20.0497 4.32384 19.5234 4.13586 18.9771 4.10957C18.4845 4.09128 17.9938 4.17922 17.5378 4.36748C17.0819 4.55574 16.6713 4.83995 16.3337 5.201C16.3503 5.07825 16.3654 4.95538 16.3778 4.83229C16.516 3.45829 16.157 1.80136 14.7633 1.20281C14.1754 0.980893 13.5351 0.940036 12.924 1.08546C12.3129 1.23088 11.7588 1.55598 11.3323 2.01929C10.9414 2.51614 10.6555 3.08797 10.4922 3.69975C10.3289 4.31153 10.2915 4.95039 10.3824 5.5772C10.0199 5.2279 9.57924 4.9712 9.09752 4.82869C8.47402 4.65774 7.81581 4.66201 7.19455 4.84104C6.5724 4.98891 6.01283 5.33108 5.59614 5.81846C5.17945 6.30583 4.92705 6.91335 4.87515 7.55386C4.88346 8.16323 5.04045 8.76123 5.33233 9.29538C5.62422 9.82952 6.04208 10.2835 6.54924 10.6174C6.24596 10.6725 5.94866 10.7568 5.66145 10.8692C4.6674 11.2607 3.66625 12.1217 3.9498 13.3123C4.08093 13.749 4.32674 14.1422 4.66136 14.4504C4.99597 14.7586 5.40703 14.9704 5.8513 15.0636C5.70451 15.1327 5.57316 15.2309 5.46518 15.3524C5.28465 15.5467 5.15625 15.784 5.09204 16.042C5.02783 16.2999 5.02992 16.5701 5.09812 16.827C5.312 17.3846 5.72366 17.8428 6.25374 18.1133C6.87586 18.3674 7.54787 18.4738 8.21757 18.4244C8.88726 18.3749 9.5366 18.171 10.1151 17.8283C10.8727 17.4727 11.6054 17.0598 12.3452 16.6688L14.3277 15.6213C14.3462 15.6374 14.367 15.6507 14.3893 15.6608C17.0477 16.9352 19.2678 18.9772 20.766 21.5261C22.4392 24.4434 23.7304 27.5658 24.6076 30.8156C24.8844 31.6731 25.0626 32.5596 25.139 33.4578C25.2039 34.41 25.1418 35.3667 24.9545 36.3023C24.9523 36.3156 24.951 36.329 24.9507 36.3424C24.327 37.6627 23.7695 39.0135 23.2805 40.3899C22.9285 38.239 22.2398 36.1577 21.2399 34.2234C20.0074 31.9736 17.9319 30.4133 16.0957 28.6914C15.0158 27.7317 14.0741 26.6257 13.2975 25.4051C13.2686 25.3589 13.2257 25.3231 13.1752 25.3032C13.1246 25.2833 13.069 25.2803 13.0166 25.2945C12.9641 25.3088 12.9177 25.3397 12.884 25.3825C12.8503 25.4253 12.8313 25.4779 12.8296 25.5325C12.594 27.1861 12.6103 28.8661 12.878 30.5148C13.121 31.8712 13.8163 33.104 14.8494 34.0102C15.8469 34.749 16.9449 35.3397 18.1097 35.7641C18.552 35.8994 18.9821 36.072 19.3954 36.2802C19.8139 36.5609 20.1894 36.9016 20.5098 37.2916C21.5509 38.5092 22.3715 39.9009 22.9342 41.4035C22.35 43.1826 21.8821 44.9982 21.5335 46.8387C21.4829 47.1068 21.4358 47.3755 21.3901 47.6444C20.5407 44.7236 18.8019 42.144 16.4182 40.2683C15.0166 39.1652 13.4192 38.34 11.711 37.8365C9.79088 37.269 7.74461 37.0181 5.93913 36.1072C3.86506 35.0609 2.63274 33.1165 1.46786 31.182C1.43914 31.1355 1.39628 31.0996 1.34565 31.0795C1.29502 31.0595 1.23931 31.0564 1.18679 31.0707C1.13427 31.085 1.08773 31.1159 1.05409 31.1589C1.02044 31.2019 1.00147 31.2547 1 31.3093C1.20323 33.3586 1.74129 35.3601 2.59253 37.2333C3.11933 38.9755 4.17879 40.5065 5.62045 41.609C7.23834 42.5006 8.98901 43.1235 10.8047 43.4535C12.7918 43.9292 14.7193 44.6285 16.5506 45.5381C18.3653 46.4434 19.9205 47.7985 21.0697 49.4755C21.0806 49.4923 21.0933 49.5079 21.1075 49.5219L21.1089 49.5342C20.5904 53.6359 20.6163 57.7886 21.1858 61.8835C21.8719 66.8742 23.3735 71.7167 25.6298 76.2155C25.9077 76.7674 26.1972 77.3131 26.4983 77.8527C26.5417 77.922 26.6103 77.9715 26.6894 77.991C26.7685 78.0104 26.8521 77.9982 26.9224 77.9569C26.9927 77.9155 27.0443 77.8484 27.0663 77.7695C27.0883 77.6907 27.079 77.6063 27.0403 77.5343C24.6284 73.1804 22.9528 68.454 22.0819 63.5481C21.269 59.0162 21.1408 54.387 21.7015 49.8167C25.3316 48.7776 29.1715 48.7287 32.8266 49.6751C34.4486 50.1462 35.9705 50.9132 37.3164 51.9377C37.9638 52.4583 38.5674 53.0316 39.1211 53.6519C39.6429 54.2654 40.2461 54.804 40.9137 55.2525C41.8081 55.7015 42.7917 55.9424 43.7914 55.9571C44.2359 55.9536 44.6758 56.0474 45.0805 56.2321C45.4853 56.4168 45.8451 56.6879 46.135 57.0266C46.2598 57.217 46.6288 57.1668 46.6029 56.8992C46.2949 54.8867 45.4158 53.0062 44.0709 51.4835C42.8809 49.8759 41.3573 48.5476 39.6056 47.591C37.6903 46.7121 35.6051 46.2703 33.4997 46.2973C31.4733 46.2349 29.4462 46.3968 27.455 46.78C25.47 47.1559 23.5648 47.8748 21.8239 48.9048C21.8349 48.8292 21.8442 48.7534 21.8556 48.6779C22.1987 46.3878 22.7235 44.1289 23.4249 41.9229C27.0906 41.7717 30.9418 41.5721 34.1772 39.6393C34.91 39.2045 35.5866 38.6803 36.1916 38.0787C36.8188 37.4507 37.3652 36.7486 37.9641 36.0944C38.5524 35.4301 39.242 34.8641 40.0073 34.4176C40.7634 33.9995 41.5732 33.688 42.4139 33.492C44.5605 33.0837 46.7548 32.9911 48.9279 33.2172C48.9719 33.2168 49.015 33.2048 49.053 33.1824C49.091 33.1601 49.1226 33.1281 49.1445 33.0897C49.1664 33.0514 49.1779 33.0079 49.178 32.9636C49.178 32.9194 49.1665 32.8759 49.1447 32.8375C47.9988 31.3922 46.3854 30.3962 44.5849 30.0224C42.5887 29.6194 40.5221 29.7525 38.5933 30.4082C36.5469 31.0955 34.5941 32.0377 32.7805 33.2127C31.0209 34.3078 29.3581 35.5528 27.8106 36.9341C26.9281 37.7215 26.086 38.5517 25.2843 39.4246C24.9406 39.8017 24.6181 40.1977 24.3182 40.6109C24.1393 40.8836 23.9056 41.1157 23.6321 41.2922C24.3152 39.2502 25.1522 37.2635 26.1357 35.3493C30.3484 27.2252 36.8181 20.506 44.7585 16.0084C45.11 15.8115 45.4651 15.6213 45.8219 15.4342C48.0932 16.5516 49.9983 18.2835 52.267 19.4067C54.2537 20.3903 57.4216 21.2644 59.0088 19.1261C59.3068 18.7093 59.471 18.2111 59.4796 17.6979C59.4882 17.1848 59.3407 16.6812 59.0569 16.2546C59.2045 16.1674 59.3406 16.0619 59.4621 15.9407ZM23.0231 9.37364C23.3446 9.63456 23.5657 9.99986 23.6485 10.4068C23.7313 10.8138 23.6706 11.237 23.4767 11.6039C22.9453 12.2907 22.2114 12.7911 21.3801 13.0336C20.3726 13.4456 19.3401 13.793 18.2981 14.1052C17.2616 14.4157 16.2151 14.6909 15.1677 14.9615C15.6676 13.9886 16.3521 13.1234 17.1825 12.4147C17.6512 11.9785 18.1401 11.5642 18.6005 11.1192C19.103 10.6335 19.5724 10.1144 20.0056 9.56549C20.1701 9.35705 20.3469 9.13281 20.5201 8.89718C20.9474 8.79827 21.3905 8.78954 21.8213 8.87156C22.2521 8.95357 22.6613 9.12453 23.0231 9.37364ZM18.7291 4.60484C19.2179 4.5831 19.7008 4.71983 20.1064 4.99488C20.5121 5.26993 20.8191 5.66873 20.9821 6.13247C21.0742 6.76015 20.9209 7.39928 20.5543 7.91575C20.217 8.47333 19.8361 9.00299 19.4151 9.4997C18.5836 10.4308 17.6945 11.3084 16.7532 12.1272C15.9588 12.8272 15.2941 13.6633 14.79 14.5966C14.8762 13.0661 15.0742 11.5439 15.3824 10.0425C15.5515 9.16308 15.7372 8.287 15.9162 7.4096C16.0043 6.97761 16.0991 6.54439 16.1826 6.10929C16.4714 5.6862 16.8492 5.33212 17.2892 5.07213C17.7293 4.81214 18.2209 4.65261 18.7291 4.60484ZM11.4855 2.62776C11.8172 2.1619 12.288 1.81449 12.8295 1.63601C13.3711 1.45753 13.9552 1.45727 14.4969 1.63527C15.8338 2.14453 16.0102 3.80408 15.853 5.03245C15.7498 5.8389 15.5625 6.63889 15.3995 7.43479C15.236 8.23234 15.0683 9.02903 14.9137 9.82839C14.6329 11.2061 14.4354 12.5997 14.3224 14.0014C13.6581 12.8864 13.1287 11.6957 12.7454 10.4545C12.4796 9.68632 12.2232 8.91434 11.9213 8.1595C11.6738 7.48856 11.3507 6.84829 10.9583 6.25118L10.9574 6.23467C10.6807 5.00821 10.869 3.7221 11.4855 2.62776ZM5.37999 7.76697C5.38106 7.19383 5.57754 6.63837 5.93668 6.19321C6.29582 5.74805 6.79591 5.44009 7.35358 5.32067C7.9056 5.16477 8.49046 5.17078 9.0392 5.33799C9.65791 5.55656 10.1869 5.97538 10.5433 6.52877C10.9533 7.15989 11.2869 7.83792 11.537 8.54848C11.8089 9.25397 12.0469 9.97192 12.2949 10.6861C12.654 11.8038 13.1198 12.8841 13.6858 13.9117C12.5463 12.4237 10.9802 11.3227 9.19883 10.7572C8.62096 10.598 8.02362 10.5216 7.4245 10.5302C6.86616 10.2997 6.38082 9.92073 6.0206 9.4339C5.66039 8.94706 5.43895 8.37079 5.37999 7.76697ZM4.51087 13.4163C4.07073 12.3829 5.06397 11.6163 5.92331 11.3075C6.3833 11.1442 6.86558 11.0529 7.35319 11.037C7.38894 11.0452 7.42624 11.0435 7.46108 11.032C9.09671 11.0703 10.6655 11.692 11.8871 12.786C12.6426 13.4466 13.322 14.1904 13.9127 15.0032C12.4566 14.928 10.9993 14.8844 9.5409 14.8724C8.80223 14.8669 8.06355 14.8699 7.32487 14.8814C7.31112 14.8765 7.29698 14.8727 7.28261 14.8702C6.2631 14.7064 4.97017 14.4947 4.51087 13.4163ZM10.7059 16.9651C9.66285 17.6733 8.41099 18.0034 7.15641 17.901C6.24495 17.7171 5.04479 16.7646 5.77426 15.7661C6.12884 15.2808 6.86443 15.3924 7.3901 15.3848C8.07937 15.3748 8.76869 15.372 9.45807 15.3765C10.8065 15.3853 12.1543 15.4225 13.5014 15.4881C12.5697 15.9807 11.6379 16.473 10.7059 16.9651ZM26.4741 15.0432C27.0441 14.4562 27.7059 13.967 28.4333 13.5952C28.3593 15.6831 28.7637 17.7697 28.5333 19.8552C28.446 20.8336 28.1494 21.7816 27.664 22.6342C27.1865 23.361 26.5547 23.9724 25.814 24.4245C25.0971 24.901 24.3341 25.2994 23.5845 25.7206C23.3625 21.9671 23.725 17.8598 26.4741 15.0432ZM12.2222 43.3238C11.2763 43.0474 10.3207 42.8096 9.3682 42.5582C8.50305 42.3509 7.65781 42.0673 6.8423 41.7106C6.02617 41.3477 5.29845 40.8105 4.70971 40.1364C4.14157 39.4251 3.68373 38.6316 3.35173 37.7827C2.92472 36.7746 2.54302 35.7371 2.19884 34.6977C1.94113 33.944 1.74528 33.1703 1.61325 32.3844C2.41261 33.8062 3.49752 35.0453 4.799 36.0229C6.45253 37.1503 8.45902 37.5267 10.3642 37.9985C11.2938 38.2114 12.2049 38.4992 13.0885 38.8591C13.8906 39.2044 14.6571 39.6278 15.3771 40.1233C16.8203 41.1167 18.0663 42.3722 19.0511 43.8253C20.0543 45.2964 20.7621 46.9503 21.1349 48.694C19.0005 45.8142 15.5775 44.304 12.2222 43.3238ZM32.5813 46.7941C34.6163 46.7075 36.6493 47.0074 38.5737 47.678C40.3518 48.4404 41.9181 49.6274 43.1366 51.1359C44.4792 52.5452 45.4561 54.2651 45.9808 56.1437C44.8386 55.2933 43.1329 55.5921 41.8135 55.1293C41.0515 54.8082 40.375 54.312 39.8382 53.6807C39.2722 53.0504 38.6736 52.4505 38.0447 51.8837C35.2276 49.6387 31.7267 48.4385 28.132 48.4852C26.2226 48.4803 24.3188 48.6939 22.4575 49.1219C25.5828 47.5003 29.0654 46.6995 32.5813 46.7941ZM19.0465 35.577C17.902 35.1965 16.8052 34.6839 15.7781 34.0496C15.2664 33.7427 14.8154 33.3436 14.4476 32.8723C14.0319 32.3102 13.7188 31.6783 13.5231 31.0061C13.1375 29.4602 13.0498 27.8545 13.2649 26.2755C14.7067 28.0896 16.334 29.7466 18.1198 31.2193C19.0465 32.0356 19.8591 32.974 20.5355 34.0092C21.1708 35.0853 21.6733 36.2351 22.0319 37.4333C22.2366 38.0848 22.4118 38.7451 22.5634 39.411C22.2066 38.7509 21.799 38.1199 21.3443 37.5236C20.786 36.6613 19.9866 35.9841 19.0465 35.577ZM27.2614 38.1262C28.7471 36.7052 30.3531 35.4168 32.0611 34.2757C33.792 33.0872 35.6448 32.0888 37.5876 31.2975C39.4674 30.4971 41.5138 30.1721 43.5475 30.351C45.3773 30.5323 47.0842 31.3585 48.3663 32.6833C44.9086 32.5126 41.1097 32.526 38.3791 34.9673C37.7393 35.5798 37.1378 36.2316 36.578 36.9187C36.0166 37.5858 35.3805 38.1856 34.6824 38.7061C33.2629 39.6879 31.6645 40.3781 29.9789 40.7372C28.1171 41.1231 26.2243 41.3382 24.3237 41.3798C24.6365 41.056 24.8842 40.6476 25.1739 40.3012C25.8292 39.538 26.5261 38.8118 27.2614 38.1262ZM58.6159 12.9176C59.3465 13.5352 59.777 14.9071 58.9013 15.6017C58.3844 15.9302 57.7932 16.1219 57.1828 16.159C56.4729 16.2557 55.7553 16.2818 55.0404 16.2371C53.5876 16.123 52.1469 15.8858 50.7338 15.5279C49.6618 15.2851 48.5878 15.0394 47.5024 14.8694L50.8187 13.9045C51.6495 13.6628 52.481 13.4235 53.311 13.1789C54.0914 12.9642 54.8538 12.6883 55.5913 12.3537C55.6763 12.3133 55.7608 12.271 55.8448 12.2268C56.329 12.1343 56.8273 12.1481 57.3056 12.2673C57.7839 12.3865 58.2309 12.6084 58.6159 12.9176ZM56.6866 6.16299C57.24 6.44573 57.6659 6.92936 57.8778 7.5159C58.0898 8.10244 58.072 8.74804 57.8281 9.32192C57.4003 10.3441 56.6094 11.1698 55.6094 11.6381C55.5822 11.6479 55.5565 11.6618 55.5334 11.6794C55.3898 11.7545 55.2449 11.8246 55.1002 11.8895C54.4162 12.179 53.7133 12.421 52.9964 12.6139C52.254 12.8311 51.5113 13.0472 50.7683 13.2623L47.3061 14.2696C49.7205 12.4393 52.0514 10.4331 53.4782 7.70549C53.5601 7.54881 53.6388 7.38933 53.7152 7.22836C53.9898 6.71096 54.4464 6.31508 54.9959 6.11806C55.5454 5.92105 56.1482 5.93707 56.6866 6.16299ZM50.2168 2.34336C51.3246 1.87542 53.0833 1.78809 53.7093 3.0429C53.9877 3.73497 54.0152 4.50342 53.7868 5.21377C53.6359 5.80039 53.4289 6.37098 53.1687 6.91756L53.1683 6.91838L53.1679 6.91939C53.0889 7.0878 53.0062 7.25411 52.9198 7.41833C52.1755 8.78741 51.2239 10.0318 50.0991 11.1068C48.8562 12.2821 47.5337 13.3693 46.1412 14.3608C46.5393 12.7986 46.9535 11.2383 47.3085 9.66612C47.5049 8.79631 47.62 7.92462 47.736 7.04167C47.8159 6.43292 47.9104 5.82476 47.9672 5.21325C48.0787 4.58593 48.3424 3.99591 48.7348 3.49536C49.1271 2.99481 49.6362 2.59915 50.2168 2.34336ZM43.1848 4.64371C43.3438 3.98262 43.6418 3.36343 44.0587 2.82777C44.2257 2.56203 44.4436 2.33232 44.6997 2.15198C44.9558 1.97165 45.245 1.8443 45.5505 1.77733C45.8408 1.77187 46.1281 1.83737 46.3876 1.96822C46.6471 2.09907 46.8712 2.29134 47.0404 2.52849C47.3767 3.16594 47.4966 3.89637 47.3819 4.60863C47.3741 4.79527 47.3602 4.98133 47.3435 5.16718C47.3204 5.30405 47.3012 5.44196 47.2905 5.58174C47.2888 5.60425 47.2893 5.62687 47.2921 5.64927C47.2386 6.10086 47.1729 6.55119 47.1136 7.00189C47.01 7.78823 46.9089 8.5657 46.7383 9.34131C46.457 10.6203 46.1287 11.8902 45.801 13.1594C45.63 12.0208 45.2784 10.9172 44.7595 9.8906C44.4948 9.35714 44.1796 8.85051 43.8184 8.37769C43.1476 7.2574 42.9214 5.92417 43.1848 4.64371ZM40.6566 10.121C40.1778 9.66807 39.89 9.0479 39.8523 8.3881C39.8683 8.11021 39.9928 7.8499 40.1988 7.66383C40.4048 7.47776 40.6755 7.38097 40.9521 7.39454C41.4277 7.41762 41.891 7.55468 42.3032 7.79428C42.7155 8.03387 43.0647 8.36907 43.322 8.77191C43.3316 8.7869 43.3424 8.80113 43.3543 8.81446C43.5887 9.12391 43.8018 9.44919 43.9919 9.78799C44.6823 11.0116 45.1091 12.3675 45.2446 13.7676C43.9784 12.3003 41.9682 11.5627 40.6566 10.121ZM58.4853 18.7832C58.1339 19.176 57.6903 19.4741 57.195 19.6505C56.6997 19.8269 56.1684 19.8759 55.6494 19.7931C53.3435 19.6082 51.3207 18.2115 49.4667 16.9418C48.7165 16.4281 47.9643 15.914 47.181 15.4536C49.8943 15.8447 52.5226 16.7809 55.2801 16.8787C56.0783 16.9107 56.8777 16.8559 57.6642 16.7153C57.9346 16.6682 58.2014 16.6027 58.4629 16.5191C58.7135 16.8417 58.8514 17.2382 58.8555 17.6474C58.8595 18.0566 58.7294 18.4558 58.4853 18.7832Z" fill="#DED6C8" stroke="#DED6C8" stroke-width="0.5"/>
</svg>
