<svg width="33" height="30" viewBox="0 0 33 30" fill="none" xmlns="http://www.w3.org/2000/svg">
<path d="M8.57723 8.5824e-05C6.3735 8.5824e-05 4.18159 0.885716 2.51109 2.66349C-0.829979 6.21897 -0.839576 11.9255 2.49763 15.4837L15.8649 29.7391C16.1885 30.087 16.8034 30.087 17.127 29.7391C21.5861 24.9937 26.0351 20.243 30.4942 15.4975C33.8353 11.942 33.8353 6.23283 30.4942 2.67729C27.1532 -0.878236 21.6894 -0.878315 18.3484 2.67729L16.5027 4.62309L14.6571 2.66349C12.8559 0.739308 10.6241 -0.00923195 8.57723 8.5824e-05ZM8.57723 1.73889C10.3139 1.73889 12.0596 2.45628 13.4084 3.89169L15.8783 6.5275C16.202 6.87539 16.8168 6.87539 17.1404 6.5275L19.5967 3.90549C22.2944 1.03461 26.548 1.03467 29.2456 3.90549C31.9432 6.77632 31.9432 11.4123 29.2456 14.2831C24.9986 18.8028 20.7496 23.3289 16.5026 27.8485L3.75961 14.2693C1.06381 11.3949 1.06199 6.76245 3.75961 3.89169C5.1084 2.45628 6.8406 1.73889 8.57723 1.73889Z" fill="#C8523C"/>
</svg>
