<svg width="41" height="40" viewBox="0 0 41 40" fill="none" xmlns="http://www.w3.org/2000/svg">
<path d="M40.9907 19.8053C40.9868 18.9165 40.3834 18.1853 39.507 17.9397C39.3322 17.8909 39.1554 17.8684 38.9805 17.8684C38.2752 17.8684 37.5987 18.2434 37.2105 18.8472C35.1272 22.074 31.5625 23.9993 27.6743 23.9993C21.4571 23.9993 16.399 19.0646 16.399 12.999C16.399 9.20607 18.3727 5.72824 21.68 3.69551C22.4506 3.22115 22.81 2.30806 22.5583 1.45307C22.3142 0.620581 21.5474 0.0374958 20.6634 0.00562482C20.6134 0.00375 20.5404 0 20.5 0C9.19568 0 0 8.97139 0 20C0 31.0286 9.19568 40 20.5 40C31.8043 40 41 31.0286 41 20C41 19.9494 40.9945 19.8559 40.9907 19.8053ZM20.5005 37.9995C10.311 37.9995 2.0511 29.9411 2.0511 20.0001C2.0511 10.0592 10.311 2.0007 20.5005 2.0007C20.5313 2.0007 20.5601 2.00445 20.5889 2.00445C16.8452 4.30689 14.3506 8.36425 14.3506 13.0009C14.3506 20.18 20.3159 25.9998 27.6745 25.9998C32.4252 25.9998 36.5858 23.5662 38.9439 19.9136C38.9439 19.9436 38.9477 19.9718 38.9477 19.9999C38.9496 29.9408 30.69 37.9995 20.5005 37.9995Z" fill="#C8523C"/>
</svg>
