<svg width="50" height="50" viewBox="0 0 50 50" fill="none" xmlns="http://www.w3.org/2000/svg">
<path d="M25 12.5C18.1068 12.5 12.5 18.109 12.5 25C12.5 31.8932 18.1066 37.5 25 37.5C31.8933 37.5 37.5 31.8933 37.5 25C37.5 18.1066 31.8933 12.5 25 12.5ZM25 35.0014C19.4778 35.0014 14.9986 30.5246 14.9986 25C14.9986 19.4778 19.4754 14.9986 25 14.9986C30.5222 14.9986 35.0014 19.4777 35.0014 25C35.0014 30.5223 30.5223 35.0014 25 35.0014Z" fill="#C8523C"/>
<path d="M25.0003 9.99903C25.6917 9.99903 26.2495 9.43884 26.2495 8.74975V1.24928C26.2495 0.557855 25.6893 0 25.0003 0C24.3088 0 23.751 0.560189 23.751 1.24928V8.74975C23.751 9.43884 24.3088 9.99903 25.0003 9.99903Z" fill="#C8523C"/>
<path d="M12.8661 14.6334C13.1098 14.8772 13.431 14.9991 13.7498 14.9991C14.0686 14.9991 14.3896 14.8772 14.6334 14.6334C15.121 14.1459 15.121 13.3537 14.6334 12.8661L9.63392 7.86662C9.14639 7.37909 8.35416 7.37909 7.86662 7.86662C7.37909 8.35416 7.37909 9.14639 7.86662 9.63392L12.8661 14.6334Z" fill="#C8523C"/>
<path d="M9.99903 25.0003C9.99903 24.3088 9.43884 23.751 8.74975 23.751H1.24928C0.557855 23.751 0 24.3112 0 25.0003C0 25.6917 0.560189 26.2495 1.24928 26.2495H8.74975C9.43884 26.2495 9.99903 25.6917 9.99903 25.0003Z" fill="#C8523C"/>
<path d="M12.8661 35.3676L7.86662 40.3671C7.37909 40.8546 7.37909 41.6469 7.86662 42.1344C8.11039 42.3782 8.43151 42.5001 8.7503 42.5001C9.06909 42.5001 9.39018 42.3782 9.63398 42.1344L14.6335 37.1349C15.121 36.6474 15.121 35.8551 14.6335 35.3676C14.146 34.8801 13.3537 34.8801 12.8661 35.3676Z" fill="#C8523C"/>
<path d="M25.0003 40.001C24.3088 40.001 23.751 40.5612 23.751 41.2503V48.7507C23.751 49.4422 24.3112 50 25.0003 50C25.6917 50 26.2495 49.4398 26.2495 48.7507V41.2503C26.2495 40.5612 25.6917 40.001 25.0003 40.001Z" fill="#C8523C"/>
<path d="M37.1349 35.3676C36.6474 34.8801 35.8551 34.8801 35.3676 35.3676C34.8801 35.8551 34.8801 36.6474 35.3676 37.1349L40.3671 42.1344C40.6109 42.3782 40.932 42.5001 41.2508 42.5001C41.5696 42.5001 41.8907 42.3782 42.1345 42.1344C42.622 41.6469 42.622 40.8546 42.1345 40.3671L37.1349 35.3676Z" fill="#C8523C"/>
<path d="M48.7507 23.751H41.2503C40.5612 23.751 40.001 24.3088 40.001 25.0003C40.001 25.6917 40.5612 26.2495 41.2503 26.2495H48.7507C49.4422 26.2495 50 25.6893 50 25.0003C50 24.3088 49.4422 23.751 48.7507 23.751Z" fill="#C8523C"/>
<path d="M36.2512 14.9991C36.57 14.9991 36.8911 14.8772 37.1349 14.6334L42.1344 9.63392C42.6219 9.14639 42.6219 8.35416 42.1344 7.86662C41.6469 7.37909 40.8546 7.37909 40.3671 7.86662L35.3676 12.8661C34.8801 13.3537 34.8801 14.1459 35.3676 14.6334C35.6114 14.8772 35.9324 14.9991 36.2512 14.9991Z" fill="#C8523C"/>
</svg>
