<svg width="81" height="81" viewBox="0 0 81 81" fill="none" xmlns="http://www.w3.org/2000/svg">
<path d="M70.6602 27.9209C73.9502 22.4531 73.2915 16.6367 68.7842 12.1299C64.2773 7.62402 58.4614 6.96289 52.9927 10.2539C51.4521 4.06055 46.874 0.414062 40.5 0.414062C34.126 0.414062 29.5479 4.06055 28.0073 10.2539C22.5381 6.96387 16.7222 7.62305 12.2158 12.1299C7.7085 16.6367 7.0498 22.4531 10.3398 27.9209C4.14697 29.4619 0.5 34.041 0.5 40.4141C0.5 46.7871 4.14697 51.3662 10.3398 52.9072C7.0498 58.375 7.7085 64.1914 12.2158 68.6982C16.7227 73.2041 22.5391 73.8652 28.0073 70.5742C29.5479 76.7676 34.126 80.4141 40.5 80.4141C46.874 80.4141 51.4521 76.7676 52.9927 70.5742C58.4614 73.8643 64.2773 73.2051 68.7842 68.6982C73.2915 64.1914 73.9502 58.375 70.6602 52.9072C76.853 51.3662 80.5 46.7871 80.5 40.4141C80.5 34.041 76.853 29.4619 70.6602 27.9209Z" fill="#C8523C"/>
</svg>
